<svg width="32" height="32" viewBox="0 0 32 32" fill="none" xmlns="http://www.w3.org/2000/svg">
<g clip-path="url(#clip0_2_15260)">
<rect width="32" height="32" fill="white"/>
<path fill-rule="evenodd" clip-rule="evenodd" d="M25.6884 12.0576L14.0029 23.8157L6.93555 16.7044L9.06343 14.5896L14.0029 19.5598L23.5605 9.94287L25.6884 12.0576Z" fill="#111827"/>
<path opacity="0.2" fill-rule="evenodd" clip-rule="evenodd" d="M16 30C23.732 30 30 23.732 30 16C30 8.26801 23.732 2 16 2C8.26801 2 2 8.26801 2 16C2 23.732 8.26801 30 16 30ZM16 32C24.8366 32 32 24.8366 32 16C32 7.16344 24.8366 0 16 0C7.16344 0 0 7.16344 0 16C0 24.8366 7.16344 32 16 32Z" fill="#060606"/>
</g>
<defs>
<clipPath id="clip0_2_15260">
<rect width="32" height="32" fill="white"/>
</clipPath>
</defs>
</svg>
