<svg width="172" height="43" viewBox="0 0 172 43" fill="none" xmlns="http://www.w3.org/2000/svg">
<path d="M14.702 21.0746C14.702 19.125 13.9275 17.2553 12.5489 15.8767C11.1704 14.4981 9.3006 13.7236 7.351 13.7236C5.40139 13.7236 3.53164 14.4981 2.15306 15.8767C0.774478 17.2553 2.94382e-07 19.125 0 21.0746L7.351 21.0746H14.702Z" fill="#3461FF"/>
<path d="M27.4851 20.4056C27.9969 20.7042 27.9969 21.4438 27.4851 21.7424L15.8663 28.52C15.3505 28.8209 14.7027 28.4488 14.7027 27.8516L14.7027 14.2964C14.7027 13.6992 15.3505 13.3271 15.8663 13.628L21.6668 17.0116L27.4851 20.4056Z" fill="#3461FF"/>
<path d="M30.2039 30.0742V13.7973H41.0188V16.4191H33.1753V20.5921H40.5818V23.2139H33.1753V27.4524H41.0188V30.0742H30.2039ZM47.9204 30.3364C46.6678 30.3364 45.5536 30.0742 44.5777 29.5499C43.6164 29.0255 42.859 28.3045 42.3055 27.3869C41.752 26.4693 41.4752 25.4278 41.4752 24.2626V13.7973H44.4466V24.1097C44.4466 24.7797 44.5922 25.3841 44.8836 25.9231C45.1894 26.462 45.6045 26.8844 46.1289 27.1903C46.6533 27.4816 47.2504 27.6272 47.9204 27.6272C48.605 27.6272 49.2022 27.4816 49.712 27.1903C50.2364 26.8844 50.6442 26.462 50.9355 25.9231C51.2414 25.3841 51.3943 24.7797 51.3943 24.1097V13.7973H54.3657V24.2626C54.3657 25.4278 54.0889 26.4693 53.5354 27.3869C52.9819 28.3045 52.2173 29.0255 51.2414 29.5499C50.28 30.0742 49.1731 30.3364 47.9204 30.3364ZM66.2673 30.3364C65.2331 30.3364 64.2718 30.147 63.3833 29.7683C62.5094 29.3896 61.752 28.8653 61.1111 28.1953C60.4848 27.5107 60.026 26.7169 59.7347 25.8138L62.2035 24.7433C62.5968 25.6755 63.1648 26.411 63.9077 26.9499C64.6505 27.4743 65.488 27.7365 66.4202 27.7365C66.9446 27.7365 67.3961 27.6564 67.7748 27.4961C68.1681 27.3214 68.4666 27.0883 68.6706 26.797C68.889 26.5057 68.9983 26.1561 68.9983 25.7483C68.9983 25.2676 68.8526 24.8744 68.5613 24.5685C68.2846 24.248 67.8622 24.0004 67.2941 23.8256L64.1698 22.8206C62.9026 22.4274 61.9486 21.8375 61.3077 21.0509C60.6669 20.2644 60.3464 19.3395 60.3464 18.2762C60.3464 17.344 60.5722 16.5211 61.0237 15.8074C61.4898 15.0937 62.1307 14.5402 62.9463 14.1469C63.7766 13.7391 64.7233 13.5352 65.7866 13.5352C66.7625 13.5352 67.6583 13.71 68.4739 14.0595C69.2896 14.3945 69.9887 14.8679 70.5713 15.4797C71.1685 16.0768 71.6128 16.7833 71.9041 17.5989L69.4571 18.6913C69.1367 17.8757 68.656 17.2494 68.0151 16.8124C67.3742 16.3609 66.6314 16.1351 65.7866 16.1351C65.2914 16.1351 64.8544 16.2225 64.4757 16.3973C64.097 16.5575 63.7984 16.7905 63.5799 17.0964C63.376 17.3877 63.2741 17.7373 63.2741 18.1451C63.2741 18.5967 63.4197 18.9972 63.711 19.3468C64.0023 19.6818 64.4466 19.944 65.0438 20.1333L68.037 21.0728C69.3333 21.4952 70.3019 22.0778 70.9428 22.8206C71.5982 23.5635 71.9259 24.4811 71.9259 25.5735C71.9259 26.5057 71.6856 27.3286 71.2049 28.0423C70.7243 28.756 70.0616 29.3168 69.2168 29.7246C68.372 30.1325 67.3888 30.3364 66.2673 30.3364ZM78.2319 30.2053C76.8919 30.2053 75.8505 29.8412 75.1076 29.1129C74.3794 28.3701 74.0152 27.3286 74.0152 25.9886V20.7451H71.9615V18.1888H72.18C72.7626 18.1888 73.2141 18.0359 73.5346 17.73C73.855 17.4241 74.0152 16.9799 74.0152 16.3973V15.4797H76.8773V18.1888H79.6083V20.7451H76.8773V25.8357C76.8773 26.2289 76.9429 26.5639 77.074 26.8407C77.2196 27.1174 77.4381 27.3286 77.7294 27.4743C78.0353 27.6199 78.4213 27.6928 78.8874 27.6928C78.9893 27.6928 79.1058 27.6855 79.2369 27.6709C79.3826 27.6564 79.521 27.6418 79.652 27.6272V30.0742C79.4481 30.1033 79.2151 30.1325 78.9529 30.1616C78.6907 30.1907 78.4504 30.2053 78.2319 30.2053ZM84.5297 30.3364C83.6121 30.3364 82.811 30.1325 82.1264 29.7246C81.4564 29.3168 80.9393 28.7488 80.5752 28.0205C80.2256 27.2922 80.0508 26.4401 80.0508 25.4643V18.1888H82.9129V25.2239C82.9129 25.7192 83.0076 26.1561 83.197 26.5348C83.4009 26.899 83.6849 27.1903 84.049 27.4087C84.4277 27.6127 84.8501 27.7146 85.3162 27.7146C85.7823 27.7146 86.1974 27.6127 86.5616 27.4087C86.9257 27.1903 87.2097 26.8917 87.4137 26.513C87.6176 26.1343 87.7195 25.6827 87.7195 25.1584V18.1888H90.5816V30.0742H87.8725V27.7365L88.1128 28.1516C87.8361 28.8799 87.3772 29.4261 86.7364 29.7902C86.11 30.1543 85.3745 30.3364 84.5297 30.3364ZM97.2222 30.3364C96.0715 30.3364 95.0446 30.0669 94.1416 29.528C93.2385 28.9745 92.5248 28.2244 92.0005 27.2777C91.4761 26.3309 91.2139 25.2822 91.2139 24.1315C91.2139 22.9663 91.4761 21.9176 92.0005 20.9854C92.5248 20.0532 93.2385 19.3104 94.1416 18.7569C95.0592 18.2034 96.0788 17.9266 97.2003 17.9266C98.1034 17.9266 98.9045 18.1087 99.6036 18.4728C100.317 18.8224 100.878 19.3176 101.286 19.9585L100.849 20.5484V13.5352H103.711V30.0742H101.002V27.7802L101.308 28.3482C100.9 28.9891 100.332 29.4843 99.6036 29.8339C98.8753 30.1689 98.0815 30.3364 97.2222 30.3364ZM97.528 27.7146C98.1835 27.7146 98.7588 27.5617 99.254 27.2558C99.7493 26.9499 100.135 26.5275 100.412 25.9886C100.703 25.4497 100.849 24.8307 100.849 24.1315C100.849 23.4469 100.703 22.8352 100.412 22.2963C100.135 21.7428 99.7493 21.3131 99.254 21.0072C98.7588 20.7014 98.1835 20.5484 97.528 20.5484C96.8872 20.5484 96.3118 20.7086 95.802 21.0291C95.2922 21.335 94.8917 21.7574 94.6004 22.2963C94.3236 22.8206 94.1853 23.4324 94.1853 24.1315C94.1853 24.8307 94.3236 25.4497 94.6004 25.9886C94.8917 26.5275 95.2922 26.9499 95.802 27.2558C96.3118 27.5617 96.8872 27.7146 97.528 27.7146ZM106.268 34.9027C105.948 34.9027 105.635 34.8735 105.329 34.8153C105.023 34.7716 104.746 34.6915 104.499 34.5749V32.1716C104.688 32.2153 104.914 32.259 105.176 32.3027C105.453 32.3464 105.707 32.3683 105.94 32.3683C106.596 32.3683 107.069 32.2153 107.361 31.9095C107.666 31.6036 107.936 31.203 108.169 30.7078L108.956 28.8726L108.912 31.2759L103.734 18.1888H106.814L110.441 27.8457H109.349L112.954 18.1888H116.056L110.878 31.2759C110.572 32.0478 110.201 32.7033 109.764 33.2422C109.327 33.7811 108.817 34.189 108.235 34.4657C107.666 34.757 107.011 34.9027 106.268 34.9027ZM114.988 30.0742L120.603 13.7973H124.448L130.063 30.0742H126.83L125.672 26.5785H119.379L118.2 30.0742H114.988ZM120.231 23.9567H124.82L122.11 15.8511H122.941L120.231 23.9567ZM134.609 30.3364C133.342 30.3364 132.235 30.0378 131.288 29.4406C130.356 28.8289 129.715 28.0059 129.366 26.9718L131.507 25.9449C131.813 26.6149 132.235 27.1393 132.774 27.518C133.328 27.8967 133.939 28.086 134.609 28.086C135.134 28.086 135.549 27.9695 135.855 27.7365C136.161 27.5034 136.313 27.1975 136.313 26.8188C136.313 26.5858 136.248 26.3964 136.117 26.2508C136 26.0906 135.833 25.9595 135.614 25.8575C135.41 25.741 135.185 25.6463 134.937 25.5735L132.993 25.0273C131.988 24.736 131.223 24.2917 130.698 23.6946C130.189 23.0974 129.934 22.391 129.934 21.5753C129.934 20.847 130.116 20.2134 130.48 19.6745C130.859 19.121 131.376 18.6913 132.031 18.3855C132.701 18.0796 133.466 17.9266 134.325 17.9266C135.447 17.9266 136.437 18.1961 137.297 18.735C138.156 19.2739 138.768 20.0314 139.132 21.0072L136.947 22.0341C136.743 21.4952 136.401 21.0655 135.92 20.7451C135.44 20.4246 134.901 20.2644 134.303 20.2644C133.823 20.2644 133.444 20.3736 133.167 20.5921C132.891 20.8106 132.752 21.0946 132.752 21.4442C132.752 21.6627 132.81 21.852 132.927 22.0122C133.044 22.1725 133.204 22.3036 133.408 22.4055C133.626 22.5075 133.874 22.6021 134.15 22.6895L136.051 23.2576C137.027 23.5489 137.777 23.9859 138.302 24.5685C138.841 25.1511 139.11 25.8648 139.11 26.7096C139.11 27.4233 138.921 28.0569 138.542 28.6104C138.163 29.1493 137.639 29.5717 136.969 29.8776C136.299 30.1835 135.512 30.3364 134.609 30.3364ZM144.285 30.3364C143.017 30.3364 141.91 30.0378 140.964 29.4406C140.031 28.8289 139.391 28.0059 139.041 26.9718L141.182 25.9449C141.488 26.6149 141.91 27.1393 142.449 27.518C143.003 27.8967 143.615 28.086 144.285 28.086C144.809 28.086 145.224 27.9695 145.53 27.7365C145.836 27.5034 145.989 27.1975 145.989 26.8188C145.989 26.5858 145.923 26.3964 145.792 26.2508C145.676 26.0906 145.508 25.9595 145.29 25.8575C145.086 25.741 144.86 25.6463 144.612 25.5735L142.668 25.0273C141.663 24.736 140.898 24.2917 140.374 23.6946C139.864 23.0974 139.609 22.391 139.609 21.5753C139.609 20.847 139.791 20.2134 140.155 19.6745C140.534 19.121 141.051 18.6913 141.706 18.3855C142.376 18.0796 143.141 17.9266 144 17.9266C145.122 17.9266 146.112 18.1961 146.972 18.735C147.831 19.2739 148.443 20.0314 148.807 21.0072L146.622 22.0341C146.418 21.4952 146.076 21.0655 145.595 20.7451C145.115 20.4246 144.576 20.2644 143.979 20.2644C143.498 20.2644 143.119 20.3736 142.843 20.5921C142.566 20.8106 142.427 21.0946 142.427 21.4442C142.427 21.6627 142.486 21.852 142.602 22.0122C142.719 22.1725 142.879 22.3036 143.083 22.4055C143.301 22.5075 143.549 22.6021 143.826 22.6895L145.726 23.2576C146.702 23.5489 147.452 23.9859 147.977 24.5685C148.516 25.1511 148.785 25.8648 148.785 26.7096C148.785 27.4233 148.596 28.0569 148.217 28.6104C147.838 29.1493 147.314 29.5717 146.644 29.8776C145.974 30.1835 145.188 30.3364 144.285 30.3364ZM149.437 30.0742V18.1888H152.299V30.0742H149.437ZM149.437 16.8561V13.7973H152.299V16.8561H149.437ZM157.917 30.3364C156.65 30.3364 155.543 30.0378 154.596 29.4406C153.664 28.8289 153.023 28.0059 152.673 26.9718L154.814 25.9449C155.12 26.6149 155.543 27.1393 156.082 27.518C156.635 27.8967 157.247 28.086 157.917 28.086C158.441 28.086 158.856 27.9695 159.162 27.7365C159.468 27.5034 159.621 27.1975 159.621 26.8188C159.621 26.5858 159.555 26.3964 159.424 26.2508C159.308 26.0906 159.14 25.9595 158.922 25.8575C158.718 25.741 158.492 25.6463 158.245 25.5735L156.3 25.0273C155.295 24.736 154.53 24.2917 154.006 23.6946C153.496 23.0974 153.241 22.391 153.241 21.5753C153.241 20.847 153.423 20.2134 153.788 19.6745C154.166 19.121 154.683 18.6913 155.339 18.3855C156.009 18.0796 156.773 17.9266 157.633 17.9266C158.754 17.9266 159.745 18.1961 160.604 18.735C161.464 19.2739 162.075 20.0314 162.439 21.0072L160.255 22.0341C160.051 21.4952 159.708 21.0655 159.228 20.7451C158.747 20.4246 158.208 20.2644 157.611 20.2644C157.13 20.2644 156.752 20.3736 156.475 20.5921C156.198 20.8106 156.06 21.0946 156.06 21.4442C156.06 21.6627 156.118 21.852 156.235 22.0122C156.351 22.1725 156.511 22.3036 156.715 22.4055C156.934 22.5075 157.181 22.6021 157.458 22.6895L159.359 23.2576C160.335 23.5489 161.085 23.9859 161.609 24.5685C162.148 25.1511 162.418 25.8648 162.418 26.7096C162.418 27.4233 162.228 28.0569 161.85 28.6104C161.471 29.1493 160.946 29.5717 160.276 29.8776C159.606 30.1835 158.82 30.3364 157.917 30.3364ZM168.488 30.2053C167.148 30.2053 166.106 29.8412 165.364 29.1129C164.635 28.3701 164.271 27.3286 164.271 25.9886V20.7451H162.217V18.1888H162.436C163.019 18.1888 163.47 18.0359 163.79 17.73C164.111 17.4241 164.271 16.9799 164.271 16.3973V15.4797H167.133V18.1888H169.864V20.7451H167.133V25.8357C167.133 26.2289 167.199 26.5639 167.33 26.8407C167.476 27.1174 167.694 27.3286 167.985 27.4743C168.291 27.6199 168.677 27.6928 169.143 27.6928C169.245 27.6928 169.362 27.6855 169.493 27.6709C169.639 27.6564 169.777 27.6418 169.908 27.6272V30.0742C169.704 30.1033 169.471 30.1325 169.209 30.1616C168.947 30.1907 168.706 30.2053 168.488 30.2053Z" fill="black"/>
</svg>
