<svg width="219" height="54" viewBox="0 0 219 54" fill="none" xmlns="http://www.w3.org/2000/svg">
<path d="M18.7559 26.8853C18.7559 24.3981 17.7679 22.0128 16.0092 20.2541C14.2505 18.4954 11.8652 17.5073 9.37796 17.5073C6.89077 17.5073 4.50545 18.4954 2.74674 20.2541C0.988033 22.0128 3.75555e-07 24.3981 0 26.8853L9.37796 26.8853H18.7559Z" fill="#3461FF"/>
<path d="M35.0636 26.0325C35.7167 26.4134 35.7167 27.3569 35.0636 27.7378L20.2412 36.3843C19.5831 36.7681 18.7566 36.2935 18.7566 35.5316L18.7566 18.2387C18.7566 17.4768 19.5831 17.0021 20.2412 17.386L27.641 21.7026L35.0636 26.0325Z" fill="#3461FF"/>
<path d="M38.5322 38.3853V17.6202H52.3291V20.9649H42.3229V26.2886H51.7717V29.6333H42.3229V35.0405H52.3291V38.3853H38.5322ZM61.1339 38.7197C59.5359 38.7197 58.1144 38.3853 56.8694 37.7163C55.643 37.0474 54.6767 36.1276 53.9706 34.9569C53.2645 33.7863 52.9115 32.4577 52.9115 30.9711V17.6202H56.7022V30.776C56.7022 31.6308 56.888 32.4019 57.2596 33.0895C57.6498 33.777 58.1794 34.3159 58.8483 34.7061C59.5173 35.0777 60.2791 35.2635 61.1339 35.2635C62.0072 35.2635 62.7691 35.0777 63.4194 34.7061C64.0884 34.3159 64.6087 33.777 64.9803 33.0895C65.3705 32.4019 65.5656 31.6308 65.5656 30.776V17.6202H69.3563V30.9711C69.3563 32.4577 69.0033 33.7863 68.2971 34.9569C67.591 36.1276 66.6155 37.0474 65.3705 37.7163C64.1441 38.3853 62.7319 38.7197 61.1339 38.7197ZM84.5397 38.7197C83.2204 38.7197 81.994 38.4782 80.8605 37.995C79.7456 37.5119 78.7793 36.843 77.9617 35.9882C77.1627 35.1149 76.5774 34.1022 76.2058 32.9501L79.3554 31.5843C79.8571 32.7736 80.5818 33.712 81.5294 34.3995C82.4771 35.0684 83.5455 35.4029 84.7348 35.4029C85.4037 35.4029 85.9798 35.3007 86.4629 35.0963C86.9646 34.8733 87.3455 34.576 87.6057 34.2044C87.8844 33.8327 88.0237 33.3868 88.0237 32.8665C88.0237 32.2533 87.8379 31.7516 87.4663 31.3614C87.1132 30.9526 86.5744 30.6367 85.8497 30.4137L81.8639 29.1316C80.2473 28.6299 79.0302 27.8773 78.2126 26.8739C77.395 25.8705 76.9862 24.6905 76.9862 23.3341C76.9862 22.1448 77.2742 21.095 77.8503 20.1845C78.4449 19.274 79.2625 18.5679 80.303 18.0661C81.3622 17.5459 82.57 17.2857 83.9265 17.2857C85.1714 17.2857 86.3142 17.5087 87.3548 17.9547C88.3954 18.382 89.2873 18.9859 90.0306 19.7664C90.7924 20.5282 91.3592 21.4294 91.7308 22.47L88.6091 23.8636C88.2003 22.8231 87.5871 22.0241 86.7695 21.4666C85.9519 20.8906 85.0042 20.6026 83.9265 20.6026C83.2947 20.6026 82.7372 20.714 82.2541 20.937C81.771 21.1414 81.3901 21.4387 81.1113 21.8289C80.8512 22.2006 80.7211 22.6465 80.7211 23.1668C80.7211 23.7429 80.9069 24.2539 81.2786 24.6998C81.6502 25.1272 82.217 25.4617 82.9788 25.7032L86.7973 26.9018C88.4511 27.4406 89.6868 28.1839 90.5044 29.1316C91.3406 30.0792 91.7587 31.2499 91.7587 32.6435C91.7587 33.8327 91.4521 34.8826 90.8389 35.7931C90.2257 36.7036 89.3802 37.419 88.3025 37.9393C87.2247 38.4596 85.9705 38.7197 84.5397 38.7197ZM99.8035 38.5525C98.0939 38.5525 96.7653 38.0879 95.8177 37.1589C94.8886 36.2112 94.4241 34.8826 94.4241 33.1731V26.4837H91.804V23.2226H92.0828C92.826 23.2226 93.4021 23.0275 93.8109 22.6373C94.2197 22.247 94.4241 21.6803 94.4241 20.937V19.7664H98.0754V23.2226H101.559V26.4837H98.0754V32.978C98.0754 33.4797 98.159 33.9071 98.3262 34.2601C98.512 34.6132 98.7908 34.8826 99.1624 35.0684C99.5526 35.2542 100.045 35.3471 100.64 35.3471C100.77 35.3471 100.918 35.3379 101.086 35.3193C101.271 35.3007 101.448 35.2821 101.615 35.2635V38.3853C101.355 38.4224 101.058 38.4596 100.723 38.4967C100.389 38.5339 100.082 38.5525 99.8035 38.5525ZM107.838 38.7197C106.667 38.7197 105.645 38.4596 104.772 37.9393C103.917 37.419 103.257 36.6943 102.793 35.7652C102.347 34.8361 102.124 33.7491 102.124 32.5041V23.2226H105.775V32.1975C105.775 32.8293 105.896 33.3868 106.138 33.8699C106.398 34.3344 106.76 34.7061 107.225 34.9848C107.708 35.2449 108.247 35.375 108.841 35.375C109.436 35.375 109.965 35.2449 110.43 34.9848C110.894 34.7061 111.257 34.3251 111.517 33.842C111.777 33.3589 111.907 32.7829 111.907 32.1139V23.2226H115.559V38.3853H112.102V35.4029L112.409 35.9325C112.056 36.8616 111.471 37.5584 110.653 38.0229C109.854 38.4875 108.916 38.7197 107.838 38.7197ZM124.03 38.7197C122.562 38.7197 121.252 38.376 120.1 37.6884C118.948 36.9823 118.037 36.0254 117.369 34.8176C116.7 33.6098 116.365 32.2719 116.365 30.8039C116.365 29.3174 116.7 27.9795 117.369 26.7903C118.037 25.601 118.948 24.6534 120.1 23.9473C121.271 23.2412 122.571 22.8881 124.002 22.8881C125.154 22.8881 126.176 23.1204 127.068 23.5849C127.979 24.0309 128.694 24.6627 129.214 25.4803L128.657 26.2328V17.2857H132.308V38.3853H128.852V35.4586L129.242 36.1833C128.722 37.0009 127.997 37.6327 127.068 38.0787C126.139 38.506 125.126 38.7197 124.03 38.7197ZM124.42 35.375C125.256 35.375 125.99 35.1799 126.622 34.7897C127.254 34.3995 127.746 33.8606 128.099 33.1731C128.471 32.4856 128.657 31.6958 128.657 30.8039C128.657 29.9306 128.471 29.1501 128.099 28.4626C127.746 27.7565 127.254 27.2084 126.622 26.8181C125.99 26.4279 125.256 26.2328 124.42 26.2328C123.603 26.2328 122.869 26.4372 122.218 26.846C121.568 27.2362 121.057 27.7751 120.685 28.4626C120.332 29.1316 120.156 29.912 120.156 30.8039C120.156 31.6958 120.332 32.4856 120.685 33.1731C121.057 33.8606 121.568 34.3995 122.218 34.7897C122.869 35.1799 123.603 35.375 124.42 35.375ZM135.571 44.5451C135.162 44.5451 134.762 44.5079 134.372 44.4336C133.982 44.3779 133.629 44.2757 133.313 44.127V41.061C133.554 41.1168 133.842 41.1725 134.177 41.2283C134.53 41.284 134.855 41.3119 135.152 41.3119C135.989 41.3119 136.592 41.1168 136.964 40.7266C137.354 40.3363 137.698 39.8253 137.995 39.1936L138.999 36.8523L138.943 39.9182L132.337 23.2226H136.267L140.894 35.5423H139.501L144.1 23.2226H148.057L141.452 39.9182C141.061 40.9031 140.588 41.7393 140.03 42.4268C139.473 43.1143 138.822 43.6346 138.079 43.9876C137.354 44.3593 136.518 44.5451 135.571 44.5451ZM146.695 38.3853L153.858 17.6202H158.763L165.927 38.3853H161.801L160.324 33.9256H152.297L150.792 38.3853H146.695ZM153.384 30.5809H159.237L155.781 20.2402H156.84L153.384 30.5809ZM171.726 38.7197C170.11 38.7197 168.698 38.3388 167.49 37.5769C166.301 36.7965 165.483 35.7467 165.037 34.4273L167.768 33.1173C168.159 33.9721 168.698 34.641 169.385 35.1242C170.091 35.6073 170.872 35.8488 171.726 35.8488C172.395 35.8488 172.925 35.7002 173.315 35.4029C173.705 35.1056 173.9 34.7154 173.9 34.2322C173.9 33.9349 173.817 33.6934 173.65 33.5076C173.501 33.3032 173.287 33.1359 173.009 33.0058C172.748 32.8572 172.46 32.7364 172.144 32.6435L169.664 31.9467C168.382 31.5751 167.406 31.0083 166.737 30.2465C166.087 29.4846 165.762 28.5834 165.762 27.5428C165.762 26.6137 165.994 25.8054 166.458 25.1179C166.942 24.4118 167.601 23.8636 168.437 23.4734C169.292 23.0832 170.268 22.8881 171.364 22.8881C172.795 22.8881 174.058 23.2319 175.155 23.9194C176.251 24.6069 177.031 25.5732 177.496 26.8181L174.709 28.1281C174.449 27.4406 174.012 26.8925 173.399 26.4837C172.786 26.0749 172.098 25.8705 171.336 25.8705C170.723 25.8705 170.24 26.0098 169.887 26.2886C169.534 26.5673 169.357 26.9296 169.357 27.3756C169.357 27.6543 169.432 27.8959 169.58 28.1003C169.729 28.3047 169.933 28.4719 170.193 28.602C170.472 28.7321 170.788 28.8528 171.141 28.9643L173.566 29.689C174.811 30.0606 175.768 30.6181 176.437 31.3614C177.124 32.1046 177.468 33.0151 177.468 34.0929C177.468 35.0034 177.227 35.8117 176.743 36.5178C176.26 37.2053 175.591 37.7442 174.737 38.1344C173.882 38.5246 172.878 38.7197 171.726 38.7197ZM184.069 38.7197C182.453 38.7197 181.041 38.3388 179.833 37.5769C178.644 36.7965 177.826 35.7467 177.38 34.4273L180.112 33.1173C180.502 33.9721 181.041 34.641 181.728 35.1242C182.434 35.6073 183.215 35.8488 184.069 35.8488C184.738 35.8488 185.268 35.7002 185.658 35.4029C186.048 35.1056 186.243 34.7154 186.243 34.2322C186.243 33.9349 186.16 33.6934 185.993 33.5076C185.844 33.3032 185.63 33.1359 185.352 33.0058C185.091 32.8572 184.803 32.7364 184.488 32.6435L182.007 31.9467C180.725 31.5751 179.749 31.0083 179.08 30.2465C178.43 29.4846 178.105 28.5834 178.105 27.5428C178.105 26.6137 178.337 25.8054 178.802 25.1179C179.285 24.4118 179.944 23.8636 180.78 23.4734C181.635 23.0832 182.611 22.8881 183.707 22.8881C185.138 22.8881 186.401 23.2319 187.498 23.9194C188.594 24.6069 189.375 25.5732 189.839 26.8181L187.052 28.1281C186.792 27.4406 186.355 26.8925 185.742 26.4837C185.129 26.0749 184.441 25.8705 183.679 25.8705C183.066 25.8705 182.583 26.0098 182.23 26.2886C181.877 26.5673 181.7 26.9296 181.7 27.3756C181.7 27.6543 181.775 27.8959 181.923 28.1003C182.072 28.3047 182.276 28.4719 182.536 28.602C182.815 28.7321 183.131 28.8528 183.484 28.9643L185.909 29.689C187.154 30.0606 188.111 30.6181 188.78 31.3614C189.467 32.1046 189.811 33.0151 189.811 34.0929C189.811 35.0034 189.57 35.8117 189.086 36.5178C188.603 37.2053 187.934 37.7442 187.08 38.1344C186.225 38.5246 185.221 38.7197 184.069 38.7197ZM190.643 38.3853V23.2226H194.294V38.3853H190.643ZM190.643 21.5223V17.6202H194.294V21.5223H190.643ZM201.461 38.7197C199.844 38.7197 198.432 38.3388 197.224 37.5769C196.035 36.7965 195.217 35.7467 194.771 34.4273L197.503 33.1173C197.893 33.9721 198.432 34.641 199.119 35.1242C199.826 35.6073 200.606 35.8488 201.461 35.8488C202.13 35.8488 202.659 35.7002 203.049 35.4029C203.44 35.1056 203.635 34.7154 203.635 34.2322C203.635 33.9349 203.551 33.6934 203.384 33.5076C203.235 33.3032 203.022 33.1359 202.743 33.0058C202.483 32.8572 202.195 32.7364 201.879 32.6435L199.398 31.9467C198.116 31.5751 197.141 31.0083 196.472 30.2465C195.821 29.4846 195.496 28.5834 195.496 27.5428C195.496 26.6137 195.728 25.8054 196.193 25.1179C196.676 24.4118 197.336 23.8636 198.172 23.4734C199.027 23.0832 200.002 22.8881 201.098 22.8881C202.529 22.8881 203.793 23.2319 204.889 23.9194C205.985 24.6069 206.766 25.5732 207.23 26.8181L204.443 28.1281C204.183 27.4406 203.746 26.8925 203.133 26.4837C202.52 26.0749 201.832 25.8705 201.071 25.8705C200.457 25.8705 199.974 26.0098 199.621 26.2886C199.268 26.5673 199.092 26.9296 199.092 27.3756C199.092 27.6543 199.166 27.8959 199.315 28.1003C199.463 28.3047 199.668 28.4719 199.928 28.602C200.206 28.7321 200.522 28.8528 200.875 28.9643L203.3 29.689C204.545 30.0606 205.502 30.6181 206.171 31.3614C206.859 32.1046 207.203 33.0151 207.203 34.0929C207.203 35.0034 206.961 35.8117 206.478 36.5178C205.995 37.2053 205.326 37.7442 204.471 38.1344C203.616 38.5246 202.613 38.7197 201.461 38.7197ZM214.947 38.5525C213.237 38.5525 211.908 38.0879 210.961 37.1589C210.032 36.2112 209.567 34.8826 209.567 33.1731V26.4837H206.947V23.2226H207.226C207.969 23.2226 208.545 23.0275 208.954 22.6373C209.363 22.247 209.567 21.6803 209.567 20.937V19.7664H213.218V23.2226H216.703V26.4837H213.218V32.978C213.218 33.4797 213.302 33.9071 213.469 34.2601C213.655 34.6132 213.934 34.8826 214.306 35.0684C214.696 35.2542 215.188 35.3471 215.783 35.3471C215.913 35.3471 216.061 35.3379 216.229 35.3193C216.415 35.3007 216.591 35.2821 216.758 35.2635V38.3853C216.498 38.4224 216.201 38.4596 215.866 38.4967C215.532 38.5339 215.225 38.5525 214.947 38.5525Z" fill="white"/>
</svg>
